Coordinates
version=1
nRows=8
nColumns=40
inDegrees=yes

Units are S.I. units (second, meters, Newtons, ...)
Angles are in degrees.

endheader
time	pelvis_tilt	pelvis_list	pelvis_rotation	pelvis_tx	pelvis_ty	pelvis_tz	hip_flexion_r	hip_adduction_r	hip_rotation_r	knee_angle_r	knee_angle_r_beta	ankle_angle_r	subtalar_angle_r	mtp_angle_r	hip_flexion_l	hip_adduction_l	hip_rotation_l	knee_angle_l	knee_angle_l_beta	ankle_angle_l	subtalar_angle_l	mtp_angle_l	lumbar_extension	lumbar_bending	lumbar_rotation	arm_flex_r	arm_add_r	arm_rot_r	elbow_flex_r	pro_sup_r	wrist_flex_r	wrist_dev_r	arm_flex_l	arm_add_l	arm_rot_l	elbow_flex_l	pro_sup_l	wrist_flex_l	wrist_dev_l
     15.75000000	      4.99740697	     21.36378657	     84.02073005	      0.59473686	      1.01355138	     -0.94096178	    -29.79849610	      2.46219795	      2.17012958	      2.38508474	      0.04162758	     13.50403330	      0.00000000	      0.00000000	      1.49942694	    -10.05200677	    -13.31948974	     16.54250400	      0.28872116	      7.50125628	      0.00000000	      0.00000000	    -38.21531974	      2.31882277	     11.17161425	     11.63002336	    -21.07672641	      7.84389689	    143.78817256	     87.65940775	      0.00000000	      0.00000000	      3.32689417	     -5.21492270	      4.20146378	    137.98682981	     85.72540784	      0.00000000	      0.00000000
     15.76000000	      5.33199261	     20.82129298	     84.29767753	      0.59360977	      1.01055983	     -0.93924710	    -29.81276255	      2.90618938	      1.85704701	      2.67131372	      0.04662322	     14.17310942	      0.00000000	      0.00000000	      1.93704922	    -10.17919956	    -12.24769192	     12.76075335	      0.22271716	      7.23641834	      0.00000000	      0.00000000	    -37.95921343	      2.76690952	     11.15550554	     11.82199901	    -21.18978919	      7.91583309	    143.72552526	     87.66886886	      0.00000000	      0.00000000	      3.38744860	     -4.94361443	      4.23728398	    137.80471776	     85.77148856	      0.00000000	      0.00000000
     15.77000000	      5.64861721	     20.31249498	     84.62857676	      0.59237257	      1.00742052	     -0.93785720	    -29.82425806	      3.33706266	      1.42377428	      3.06553614	      0.05350370	     14.88824857	      0.00000000	      0.00000000	      2.24007540	    -10.26324102	    -10.70984797	      9.01193675	      0.15728797	      6.87539754	      0.00000000	      0.00000000	    -37.67913348	      3.21848483	     11.07340697	     11.94323267	    -21.24963091	      7.98922668	    143.67323644	     87.67672411	      0.00000000	      0.00000000	      3.38695125	     -4.66186615	      4.26874057	    137.65039132	     85.85839832	      0.00000000	      0.00000000
     15.78000000	      6.00661182	     19.77774668	     84.92428658	      0.59106705	      1.00396932	     -0.93666428	    -29.83056349	      3.77497361	      1.28115441	      3.44511934	      0.06012868	     15.61624958	      0.00000000	      0.00000000	      2.62527249	    -10.44557366	     -8.98821423	      5.69037057	      0.09931570	      6.85027110	      0.00000000	      0.00000000	    -37.33147885	      3.71047856	     11.01533940	     11.98680279	    -21.23588325	      8.05416497	    143.63999339	     87.66400063	      0.00000000	      0.00000000	      3.35234143	     -4.33901966	      4.22397642	    137.50824563	     85.84902807	      0.00000000	      0.00000000
     15.79000000	      6.08310152	     19.45965257	     85.08119992	      0.58969716	      1.00085116	     -0.93575122	    -29.83898808	      3.80111861	      0.79002423	      4.22818078	      0.07379568	     16.57093605	      0.00000000	      0.00000000	      2.72897462	    -10.34766040	     -7.73842789	      2.75971916	      0.04816619	      6.35568809	      0.00000000	      0.00000000	    -37.15811224	      3.82528443	     10.94842389	     12.02327335	    -21.15728132	      7.97364939	    143.62306069	     87.65691844	      0.00000000	      0.00000000	      3.33855368	     -4.00061505	      4.14436281	    137.43163554	     85.92733108	      0.00000000	      0.00000000
     15.80000000	      6.41825289	     19.09496514	     85.37442805	      0.58809971	      0.99756488	     -0.93476087	    -29.84232456	      4.19531073	      0.62804955	      4.96531730	      0.08666114	     17.44930059	      0.00000000	      0.00000000	      3.40961074	    -10.61370249	     -6.50832627	      1.21757442	      0.02125068	      6.53861576	      0.00000000	      0.00000000	    -36.94736425	      4.26403727	     10.83106131	     12.09820758	    -21.11188385	      7.90200928	    143.60245939	     87.55376813	      0.00000000	      0.00000000	      3.32512589	     -3.63395676	      4.12766724	    137.37296605	     85.65708668	      0.00000000	      0.00000000
     15.81000000	      6.62943040	     18.77310805	     85.81376901	      0.58612775	      0.99418040	     -0.93397730	    -29.84220749	      4.50339686	      0.18156536	      5.82018823	      0.10158145	     18.29469518	      0.00000000	      0.00000000	      4.41833702	    -10.75578264	     -5.59117864	      0.79897987	      0.01394483	      7.13235365	      0.00000000	      0.00000000	    -36.71045619	      4.66549529	     10.54293685	     12.12315086	    -20.91906956	      7.67026025	    143.57708032	     87.71054703	      0.00000000	      0.00000000	      3.30845911	     -3.31252922	      4.06712477	    137.33101282	     85.52142977	      0.00000000	      0.00000000
     15.82000000	      6.77028739	     18.59049358	     85.83515889	      0.58436179	      0.99123982	     -0.93351965	    -29.84479058	      4.48509902	      0.06630388	      6.95327582	      0.12135756	     19.12678989	      0.00000000	      0.00000000	      5.06442366	    -10.79964019	     -5.11986662	      0.78307610	      0.01366726	      7.79576039	      0.00000000	      0.00000000	    -36.60262714	      4.78304906	     10.51085284	     12.18435617	    -20.73487517	      7.42569053	    143.54750608	     87.73122686	      0.00000000	      0.00000000	      3.22544393	     -2.90586634	      3.93242236	    137.29904244	     85.68784709	      0.00000000	      0.00000000
